<svg height="512pt" viewBox="0 0 512 512" width="512pt" xmlns="http://www.w3.org/2000/svg" xmlns:xlink="http://www.w3.org/1999/xlink"><linearGradient id="a" gradientUnits="userSpaceOnUse" x1="0" x2="512" y1="256" y2="256"><stop offset="0" stop-color="#00f1ff"/><stop offset=".231" stop-color="#00d8ff"/><stop offset=".5138" stop-color="#00c0ff"/><stop offset=".7773" stop-color="#00b2ff"/><stop offset="1" stop-color="#00adff"/></linearGradient><path d="m512 256c0 141.386719-114.613281 256-256 256s-256-114.613281-256-256 114.613281-256 256-256 256 114.613281 256 256zm0 0" fill="url(#a)"/><g fill="#fff"><path d="m225.867188 385.066406h-75.289063c-12.488281 0-22.644531-10.15625-22.644531-22.644531v-220.847656c0-12.484375 10.15625-22.640625 22.644531-22.640625h174.417969c12.484375 0 22.644531 10.15625 22.644531 22.640625v83.445312c0 8.285157 6.714844 15 15 15 8.28125 0 15-6.714843 15-15v-83.445312c0-29.023438-23.617187-52.640625-52.644531-52.640625h-174.417969c-29.027344 0-52.644531 23.613281-52.644531 52.640625v220.847656c0 29.027344 23.617187 52.644531 52.644531 52.644531h75.289063c8.28125 0 15-6.714844 15-15s-6.71875-15-15-15zm0 0"/><path d="m176.351562 253.832031c0-6.554687-5.316406-11.871093-11.871093-11.871093h-1.355469c-6.929688 0-12.546875 5.617187-12.546875 12.546874 0 6.929688 5.617187 12.550782 12.546875 12.550782 7.304688 0 13.226562-5.921875 13.226562-13.226563zm0 0"/><path d="m225.863281 254.507812c0 6.929688-5.617187 12.550782-12.546875 12.550782-6.929687 0-12.546875-5.621094-12.546875-12.550782 0-6.929687 5.617188-12.546874 12.546875-12.546874 6.929688 0 12.546875 5.617187 12.546875 12.546874zm0 0"/><path d="m275.429688 254.507812c0 6.929688-5.617188 12.550782-12.546876 12.550782-6.929687 0-12.546874-5.621094-12.546874-12.550782 0-6.929687 5.617187-12.546874 12.546874-12.546874 6.929688 0 12.546876 5.617187 12.546876 12.546874zm0 0"/><path d="m176.300781 302.191406c0-6.929687-5.617187-12.546875-12.546875-12.546875h-.628906c-6.929688 0-12.550781 5.617188-12.550781 12.546875 0 6.929688 5.621093 12.546875 12.550781 12.546875h.628906c6.929688 0 12.546875-5.617187 12.546875-12.546875zm0 0"/><path d="m225.863281 302.191406c0-6.929687-5.617187-12.546875-12.546875-12.546875-6.929687 0-12.546875 5.617188-12.546875 12.546875 0 6.929688 5.617188 12.546875 12.546875 12.546875 6.929688 0 12.546875-5.617187 12.546875-12.546875zm0 0"/><path d="m175.671875 349.875c0 6.929688-5.617187 12.546875-12.546875 12.546875s-12.546875-5.617187-12.546875-12.546875 5.617187-12.546875 12.546875-12.546875 12.546875 5.617187 12.546875 12.546875zm0 0"/><path d="m212.691406 337.328125c-6.929687 0-12.550781 5.617187-12.550781 12.546875s5.621094 12.546875 12.550781 12.546875c6.929688 0 12.546875-5.617187 12.546875-12.546875s-5.617187-12.546875-12.546875-12.546875zm0 0"/><path d="m327.445312 204.316406v-50.191406c0-8.285156-6.714843-15-15-15h-149.320312c-8.285156 0-15 6.714844-15 15v50.191406c0 8.285156 6.714844 15 15 15h149.320312c8.285157 0 15-6.714844 15-15zm-30-15h-119.320312v-20.191406h119.320312zm0 0"/><path d="m419.1875 316.847656-64.765625-59.214844c-14.628906-13.375-36.691406-13.375-51.320313 0l-64.769531 59.214844c-6.113281 5.589844-6.539062 15.074219-.949219 21.1875 4.695313 5.140625 12.140626 6.242188 18.027344 3.152344v36.074219c0 20.84375 16.949219 37.804687 37.777344 37.804687h70.515625c20.832031 0 37.777344-16.960937 37.777344-37.804687v-36.414063c2.34375 1.375 4.964843 2.066406 7.582031 2.066406 4.066406 0 8.117188-1.640624 11.074219-4.878906 5.589843-6.113281 5.167969-15.601562-.949219-21.1875zm-55.484375 68.21875h-70.515625c-4.289062 0-7.777344-3.5-7.777344-7.804687v-62.8125l37.933594-34.675781c3.089844-2.828126 7.746094-2.824219 10.835938 0l37.300781 34.101562v63.386719c0 4.304687-3.488281 7.804687-7.777344 7.804687zm0 0"/></g></svg>